# xmcd
#
# Track frame offsets:
#	150
#	17081
#	38961
#	56767
#	79219
#	98519
#	114878
#	133656
#	149179
#	170200
#	188882
#	202868
#
# Disc length: 2935 seconds
#
# Revision: 5
# Processed by: cddbd v1.5.2PL0 Copyright (c) Steve Scherf et al.
# Submitted via: EZCDAudioConverter 7.1.7.1
#
DISCID=a90b750c
DTITLE=罗百吉 - 呛声
DYEAR=2005
DGENRE=
TTITLE0=呛声
TTITLE1=为什么没有爱
TTITLE2=音乐(music)
TTITLE3=摩天轮(舞曲版／罗百吉VS.宝贝)
TTITLE4=摩天轮(抒情版)
TTITLE5=星期六
TTITLE6=飙起来
TTITLE7=VIP
TTITLE8=男人的眼泪
TTITLE9=温暖的家(大合唱)
TTITLE10=花花公子 PLAY BOY(罗百吉VS.宝贝)
TTITLE11=吹喇叭(嘻哈版)
EXTD=
EXTT0=
EXTT1=
EXTT2=
EXTT3=
EXTT4=
EXTT5=
EXTT6=
EXTT7=
EXTT8=
EXTT9=
EXTT10=
EXTT11=
PLAYORDER=
